<svg xmlns="http://www.w3.org/2000/svg" width="1200" height="630" viewBox="0 0 1200 630">
  <defs>
    <linearGradient id="bg" x1="0" y1="0" x2="1" y2="1">
      <stop offset="0%" stop-color="#0d1220"/>
      <stop offset="50%" stop-color="#131a2e"/>
      <stop offset="100%" stop-color="#1a2340"/>
    </linearGradient>
    <linearGradient id="gold" x1="0" y1="0" x2="1" y2="0">
      <stop offset="0%" stop-color="#d9a441"/>
      <stop offset="100%" stop-color="#e8c87a"/>
    </linearGradient>
  </defs>
  <rect width="1200" height="630" fill="url(#bg)"/>
  <!-- stars -->
  <circle cx="100" cy="80" r="1.5" fill="rgba(255,255,255,.6)"/>
  <circle cx="350" cy="120" r="1" fill="rgba(255,255,255,.4)"/>
  <circle cx="800" cy="60" r="2" fill="rgba(255,255,255,.5)"/>
  <circle cx="1050" cy="100" r="1.5" fill="rgba(255,255,255,.3)"/>
  <circle cx="500" cy="40" r="1" fill="rgba(255,255,255,.5)"/>
  <circle cx="700" cy="160" r="1" fill="rgba(255,255,255,.4)"/>
  <!-- gold glow -->
  <ellipse cx="900" cy="315" rx="300" ry="300" fill="rgba(217,164,65,.06)"/>
  <!-- phone mock outline -->
  <rect x="830" y="140" width="280" height="340" rx="28" fill="none" stroke="rgba(217,164,65,.15)" stroke-width="1"/>
  <rect x="830" y="140" width="280" height="50" rx="28" fill="rgba(217,164,65,.04)"/>
  <circle cx="865" cy="165" r="16" fill="rgba(217,164,65,.15)"/>
  <line x1="895" y1="158" x2="960" y2="158" stroke="rgba(255,255,255,.2)" stroke-width="2" stroke-linecap="round"/>
  <line x1="895" y1="170" x2="935" y2="170" stroke="rgba(255,255,255,.12)" stroke-width="1.5" stroke-linecap="round"/>
  <!-- chat bubbles -->
  <rect x="845" y="205" width="180" height="32" rx="14" fill="rgba(217,164,65,.08)"/>
  <rect x="895" y="245" width="140" height="32" rx="14" fill="rgba(24,37,51,.8)"/>
  <rect x="845" y="295" width="200" height="38" rx="14" fill="rgba(217,164,65,.08)"/>
  <rect x="880" y="345" width="155" height="32" rx="14" fill="rgba(24,37,51,.8)"/>
  <rect x="845" y="395" width="220" height="42" rx="14" fill="rgba(217,164,65,.08)"/>
  <rect x="855" y="420" width="60" height="6" rx="3" fill="rgba(125,138,110,.15)"/>
  <!-- text -->
  <text x="80" y="220" font-family="Georgia,serif" font-size="64" font-weight="700" fill="#f6efe3">Afterschool</text>
  <text x="80" y="290" font-family="Georgia,serif" font-size="64" font-weight="700" fill="#f6efe3">Agent</text>
  <text x="80" y="340" font-family="system-ui,sans-serif" font-size="18" fill="rgba(246,239,227,.5)" letter-spacing="3" text-transform="uppercase">IN A WORLD FULL OF AI AGENTS</text>
  <text x="80" y="370" font-family="system-ui,sans-serif" font-size="18" fill="rgba(246,239,227,.5)" letter-spacing="3" text-transform="uppercase">WE GIVE YOUNG PEOPLE AGENCY</text>
  <line x1="80" y1="395" x2="350" y2="395" stroke="#d9a441" stroke-width="2" opacity=".6"/>
  <text x="80" y="430" font-family="system-ui,sans-serif" font-size="14" fill="rgba(246,239,227,.35)" letter-spacing="2">ON-DEMAND TRAINING · WEEKLY LIVE Q&A · $44.88</text>
  <!-- bottom -->
  <text x="80" y="560" font-family="system-ui,sans-serif" font-size="11" fill="rgba(246,239,227,.2)" letter-spacing="4" text-transform="uppercase">onetoeight.org</text>
</svg>
